<svg id="Capa_1" enable-background="new 0 0 512 512" height="512" viewBox="0 0 512 512" width="512" xmlns="http://www.w3.org/2000/svg" xmlns:xlink="http://www.w3.org/1999/xlink"><linearGradient id="SVGID_1_" gradientUnits="userSpaceOnUse" x1="90.629" x2="471.648" y1="422.422" y2="41.402"><stop offset="0" stop-color="#fff" stop-opacity="0"/><stop offset=".2532" stop-color="#eef" stop-opacity=".403"/><stop offset=".629" stop-color="#d9d9ff"/></linearGradient><linearGradient id="SVGID_2_" gradientUnits="userSpaceOnUse" x1="256" x2="256" y1="441.818" y2="70.183"><stop offset="0" stop-color="#ff4d4d" stop-opacity=".4"/><stop offset=".1463" stop-color="#ff4d4d" stop-opacity=".342"/><stop offset="1" stop-color="#ff4d4d" stop-opacity="0"/></linearGradient><g><g><path d="m252.652 10.307c-109.961 6.821-246.257 42.394-252.429 105.695-7.673 78.7 184.475 79.195 262.645 94.656 65.858 13.025-60.33 71.672-75.342 102.4-17.508 35.837 79.561 34.391 49.457 72.056-21.873 27.366-94.425 39.846-91.906 82.311 4.557 76.828 302.156 10.718 340.859-26.919 32.943-32.036 10.961-60.498-26.98-75.283-28.604-11.146-89.803-58.12-62.243-93.274 18.673-23.819 42.886-42.57 63.47-64.755 144.142-155.349-40.929-207.222-207.531-196.887z" fill="url(#SVGID_1_)"/></g><g><g><g><circle cx="256" cy="256" fill="#9494ff" r="185.817"/><g fill="#8383ff"><path d="m152.65 280c0 33.36-27.04 60.4-60.4 60.4-.62 0-1.24-.01-1.85-.03-12.93-25.32-20.22-53.99-20.22-84.37 0-11.38 1.02-22.51 2.98-33.32 6-2 12.42-3.08 19.09-3.08 33.36 0 60.4 27.04 60.4 60.4z"/><path d="m441.82 256c0 30.38-7.29 59.05-20.22 84.37-.61.02-1.23.03-1.85.03-33.36 0-60.4-27.04-60.4-60.4s27.04-60.4 60.4-60.4c6.67 0 13.09 1.08 19.09 3.08 1.96 10.81 2.98 21.94 2.98 33.32z"/><path d="m316.4 116.25c0 33.36-27.04 60.4-60.4 60.4s-60.4-27.04-60.4-60.4c0-15.67 5.96-29.94 15.74-40.67 14.3-3.53 29.26-5.4 44.66-5.4s30.36 1.87 44.66 5.4c9.78 10.73 15.74 25 15.74 40.67z"/></g><path d="m217.799 357.012-4.002 11.041c-1.254 3.458-4.373 5.896-8.031 6.276l-24.118 2.509c-2.957.308-5.604 1.968-7.169 4.495l-19.127 30.896c-51.242-33.089-85.167-90.694-85.167-156.229 0-39.54 12.345-76.18 33.396-106.303l3.544 31.921c.54 4.862 4.649 8.54 9.541 8.54h7.66c3.675 0 7.028 2.099 8.634 5.405l18.942 38.99c1.319 2.715 1.284 5.893-.094 8.578l-24.316 47.372c-1.284 2.501-1.407 5.44-.336 8.04l8.264 20.063c1.861 4.517 6.817 6.916 11.514 5.574l25.843-7.386c3.05-.872 6.333-.18 8.772 1.846l33.36 27.717c3.113 2.587 4.27 6.849 2.89 10.655z" fill="#ffab66"/><path d="m136.729 320.854c-.525-.673-.97-1.425-1.309-2.249l-8.264-20.063c-1.071-2.6-.948-5.538.336-8.04l19.018-37.05c-9.826-20.047-30.426-33.853-54.26-33.853-6.666 0-13.082 1.079-19.08 3.077-1.957 10.811-2.985 21.946-2.985 33.323 0 30.38 7.301 59.05 20.227 84.37.606.02 1.221.03 1.837.03 17.603.001 33.441-7.532 44.48-19.545z" fill="#ff9d33"/><path d="m361.276 271.205c-3.187 3.36-3.523 8.515-.797 12.258l29.921 41.143c1.45 1.987 2.073 4.454 1.757 6.883l-7.612 58.69c-16.367 15.685-35.594 28.404-56.828 37.293l-16.376-73.377c-.067-.278-.144-.557-.23-.835l-11.634-36.468c-.912-2.861-3.12-5.126-5.952-6.124l-62.146-21.973c-1.91-.672-3.552-1.939-4.704-3.6l-37.341-54.227c-1.67-2.419-2.131-5.462-1.277-8.265l14.649-47.651c1.238-4.032 4.963-6.777 9.177-6.777h34.75c1.757 0 3.485-.48 4.982-1.392l49.677-30.19c1.507-.912 3.225-1.401 4.992-1.401h46.614c2.717 0 5.308-1.152 7.132-3.168l16.079-17.816c23.355 19.803 41.748 45.271 53.065 74.289l-35.7 16.492c-2.707 1.258-4.684 3.696-5.337 6.614l-8.649 38.474c-.384 1.689-1.219 3.254-2.409 4.502z" fill="#ffab66"/><path d="m313.353 135.192h-7.072c-1.766 0-3.485.49-4.992 1.401l-49.677 30.19c-1.497.912-3.225 1.392-4.982 1.392h-21.483c9.031 5.377 19.578 8.474 30.852 8.474 26.742.001 49.407-17.38 57.354-41.457z" fill="#ff9d33"/><g><path d="m360.479 283.464c-.449-.617-.807-1.275-1.091-1.954.558 22.665 13.587 42.222 32.497 52.075l.272-2.096c.317-2.429-.307-4.896-1.757-6.883z" fill="#ff9d33"/></g></g><g><g><g><circle cx="256" cy="92.251" fill="#ff9494" r="60.403"/><g><circle cx="256" cy="92.251" fill="#fff" r="43.973"/></g></g><g><path d="m288.034 73.995c1.367 2.399.531 5.453-1.868 6.82l-27.69 15.781c-.781.445-1.632.657-2.471.657-1.955 0-3.848-1.149-4.658-3.167-.939-2.341.14-5.018 2.331-6.266l27.536-15.693c2.399-1.368 5.453-.531 6.82 1.868z" fill="#6c6cff"/></g><path d="m257.922 114.181 1.83-12.828c3.72-1.535 6.296-5.28 6.082-9.602-.25-5.046-4.481-9.19-9.531-9.342-5.576-.167-10.149 4.303-10.149 9.842 0 3.111 1.447 5.881 3.7 7.685l-1.831 12.833c-.39 2.734 1.51 5.266 4.244 5.656 2.733.39 5.265-1.51 5.655-4.244z" fill="#ff4d4d"/></g><g><g><circle cx="256" cy="256" fill="url(#SVGID_2_)" r="185.817"/><circle cx="256" cy="419.749" fill="#ff6c6c" r="60.403"/><g><circle cx="256" cy="419.749" fill="#fff" r="43.973"/></g></g><g><path d="m282.726 394.348c1.902 2.002 1.822 5.167-.18 7.069l-23.102 21.956c-.652.619-1.427 1.029-2.242 1.23-1.898.469-4.012-.193-5.281-1.958-1.472-2.047-1.066-4.905.762-6.642l22.973-21.834c2.003-1.903 5.167-1.822 7.07.179z" fill="#6c6cff"/></g><path d="m254.915 397.761-2.317 12.749c-3.776 1.392-6.492 5.037-6.443 9.363.057 5.052 4.127 9.354 9.168 9.698 5.566.38 10.306-3.913 10.517-9.448.118-3.109-1.221-5.931-3.404-7.82l2.318-12.754c.494-2.717-1.308-5.32-4.025-5.813-2.717-.494-5.32 1.308-5.814 4.025z" fill="#ff4d4d"/></g></g><g><g><g><circle cx="419.749" cy="256" fill="#ff9d33" r="60.403"/><g><circle cx="419.749" cy="256" fill="#fff" r="43.973"/></g></g><g><path d="m419.749 219.129c2.761 0 5 2.239 5 5v31.871c0 .899-.237 1.743-.653 2.472-.968 1.699-2.904 2.775-5.057 2.479-2.498-.343-4.29-2.606-4.29-5.128v-31.694c0-2.761 2.238-5 5-5z" fill="#6c6cff"/></g><path d="m434.071 239.282-10.445 7.669c-3.7-1.583-8.178-.803-11.115 2.374-3.43 3.709-3.43 9.632-.005 13.346 3.782 4.101 10.176 4.24 14.133.364 2.223-2.177 3.189-5.148 2.901-8.02l10.449-7.672c2.226-1.634 2.705-4.763 1.071-6.989-1.634-2.227-4.763-2.707-6.989-1.072z" fill="#ff4d4d"/></g><g><g><circle cx="92.251" cy="256" fill="#8383ff" r="60.403"/><g><circle cx="92.251" cy="256" fill="#fff" r="43.973"/></g></g><g><g><path d="m56.115 263.322c-.548-2.706 1.201-5.345 3.908-5.893l31.236-6.329c.881-.178 1.755-.113 2.553.149 1.857.612 3.296 2.295 3.434 4.464.16 2.517-1.703 4.722-4.174 5.223l-31.063 6.294c-2.708.548-5.346-1.202-5.894-3.908z" fill="#6c6cff"/></g><path d="m97.284 234.569-5.75 11.612c-4.014.295-7.631 3.046-8.78 7.218-1.341 4.871 1.382 10.131 6.131 11.854 5.244 1.903 10.986-.913 12.718-6.174.973-2.955.465-6.038-1.111-8.457l5.752-11.617c1.225-2.475.213-5.474-2.262-6.699-2.473-1.225-5.472-.212-6.698 2.263z" fill="#ff4d4d"/></g></g></g></g><path d="m409.585 80.97c-1.28 0-2.559-.488-3.536-1.464l-5.464-5.464-5.464 5.464c-1.953 1.952-5.118 1.952-7.071 0-1.953-1.953-1.953-5.119 0-7.071l9-9c1.953-1.952 5.118-1.952 7.071 0l9 9c1.953 1.953 1.953 5.119 0 7.071-.977.975-2.256 1.464-3.536 1.464z" fill="#ff6c6c"/><path d="m117.348 444.13c-1.28 0-2.559-.488-3.536-1.464l-5.464-5.464-5.464 5.464c-1.953 1.952-5.118 1.952-7.071 0-1.953-1.953-1.953-5.119 0-7.071l9-9c1.953-1.952 5.118-1.952 7.071 0l9 9c1.953 1.953 1.953 5.119 0 7.071-.977.976-2.257 1.464-3.536 1.464z" fill="#ff9d33"/><path d="m463.722 396.234c-1.28 0-2.559-.488-3.536-1.464l-5.464-5.464-5.464 5.464c-1.953 1.952-5.118 1.952-7.071 0-1.953-1.953-1.953-5.119 0-7.071l9-9c1.953-1.952 5.118-1.952 7.071 0l9 9c1.953 1.953 1.953 5.119 0 7.071-.977.976-2.256 1.464-3.536 1.464z" fill="#6c6cff"/><g fill="#ff9d33"><g><path d="m57.774 391.849c-.844 0-1.7-.214-2.485-.665l-.099-.057c-2.395-1.375-3.221-4.431-1.846-6.826 1.375-2.394 4.431-3.222 6.826-1.846l.099.057c2.395 1.375 3.221 4.431 1.846 6.826-.925 1.609-2.609 2.511-4.341 2.511z"/><path d="m82.675 406.226c-.844 0-1.7-.214-2.485-.665l-.099-.057c-2.395-1.375-3.221-4.431-1.846-6.826 1.375-2.394 4.432-3.221 6.826-1.846l.099.057c2.395 1.375 3.221 4.431 1.846 6.826-.924 1.609-2.608 2.511-4.341 2.511z"/></g><g><path d="m57.774 391.849c-.844 0-1.7-.214-2.485-.665l-.099-.057c-2.395-1.375-3.221-4.431-1.846-6.826 1.375-2.394 4.431-3.222 6.826-1.846l.099.057c2.395 1.375 3.221 4.431 1.846 6.826-.925 1.609-2.609 2.511-4.341 2.511z"/><path d="m82.675 406.226c-.844 0-1.7-.214-2.485-.665l-.099-.057c-2.395-1.375-3.221-4.431-1.846-6.826 1.375-2.394 4.432-3.221 6.826-1.846l.099.057c2.395 1.375 3.221 4.431 1.846 6.826-.924 1.609-2.608 2.511-4.341 2.511z"/></g><g><path d="m82.586 391.849c-1.732 0-3.417-.901-4.341-2.511-1.375-2.395-.549-5.451 1.846-6.826l.099-.057c2.394-1.376 5.451-.549 6.826 1.846s.549 5.451-1.846 6.826l-.099.057c-.784.45-1.64.665-2.485.665z"/><path d="m57.685 406.226c-1.732 0-3.417-.901-4.341-2.511-1.375-2.395-.549-5.451 1.846-6.826l.099-.057c2.395-1.375 5.451-.549 6.826 1.846s.549 5.451-1.846 6.826l-.099.057c-.785.45-1.641.665-2.485.665z"/></g><g><path d="m82.586 391.849c-1.732 0-3.417-.901-4.341-2.511-1.375-2.395-.549-5.451 1.846-6.826l.099-.057c2.394-1.376 5.451-.549 6.826 1.846s.549 5.451-1.846 6.826l-.099.057c-.784.45-1.64.665-2.485.665z"/><path d="m57.685 406.226c-1.732 0-3.417-.901-4.341-2.511-1.375-2.395-.549-5.451 1.846-6.826l.099-.057c2.395-1.375 5.451-.549 6.826 1.846s.549 5.451-1.846 6.826l-.099.057c-.785.45-1.641.665-2.485.665z"/></g><g><path d="m70.18 384.688c-2.761 0-5-2.239-5-5v-.114c0-2.761 2.239-5 5-5s5 2.239 5 5v.114c0 2.761-2.239 5-5 5z"/><path d="m70.18 413.441c-2.761 0-5-2.239-5-5v-.114c0-2.761 2.239-5 5-5s5 2.239 5 5v.114c0 2.762-2.239 5-5 5z"/></g></g><g fill="#6c6cff"><g><path d="m334.482 47.432c-.851 0-1.712-.217-2.501-.674l-.099-.057c-2.39-1.384-3.205-4.443-1.821-6.833 1.384-2.389 4.442-3.205 6.833-1.821l.099.057c2.39 1.384 3.205 4.443 1.821 6.833-.928 1.6-2.606 2.495-4.332 2.495z"/><path d="m359.383 61.809c-.851 0-1.712-.217-2.501-.674l-.099-.057c-2.39-1.384-3.205-4.443-1.821-6.833 1.385-2.39 4.443-3.205 6.833-1.821l.099.057c2.39 1.384 3.205 4.443 1.821 6.833-.927 1.6-2.606 2.495-4.332 2.495z"/></g><g><path d="m334.482 47.432c-.851 0-1.712-.217-2.501-.674l-.099-.057c-2.39-1.384-3.205-4.443-1.821-6.833 1.384-2.389 4.442-3.205 6.833-1.821l.099.057c2.39 1.384 3.205 4.443 1.821 6.833-.928 1.6-2.606 2.495-4.332 2.495z"/><path d="m359.383 61.809c-.851 0-1.712-.217-2.501-.674l-.099-.057c-2.39-1.384-3.205-4.443-1.821-6.833 1.385-2.39 4.443-3.205 6.833-1.821l.099.057c2.39 1.384 3.205 4.443 1.821 6.833-.927 1.6-2.606 2.495-4.332 2.495z"/></g><g><path d="m359.294 47.432c-1.726 0-3.404-.895-4.332-2.495-1.384-2.389-.569-5.448 1.821-6.833l.099-.057c2.39-1.383 5.449-.568 6.833 1.821s.569 5.448-1.821 6.833l-.099.057c-.788.456-1.65.674-2.501.674z"/><path d="m334.393 61.809c-1.726 0-3.404-.895-4.332-2.495-1.384-2.389-.569-5.448 1.821-6.833l.099-.057c2.39-1.383 5.449-.568 6.833 1.821s.569 5.448-1.821 6.833l-.099.057c-.789.456-1.651.674-2.501.674z"/></g><g><path d="m359.294 47.432c-1.726 0-3.404-.895-4.332-2.495-1.384-2.389-.569-5.448 1.821-6.833l.099-.057c2.39-1.383 5.449-.568 6.833 1.821s.569 5.448-1.821 6.833l-.099.057c-.788.456-1.65.674-2.501.674z"/><path d="m334.393 61.809c-1.726 0-3.404-.895-4.332-2.495-1.384-2.389-.569-5.448 1.821-6.833l.099-.057c2.39-1.383 5.449-.568 6.833 1.821s.569 5.448-1.821 6.833l-.099.057c-.789.456-1.651.674-2.501.674z"/></g><g><path d="m346.888 40.271c-2.761 0-5-2.239-5-5v-.114c0-2.761 2.239-5 5-5s5 2.239 5 5v.114c0 2.761-2.239 5-5 5z"/><path d="m346.888 69.024c-2.761 0-5-2.239-5-5v-.114c0-2.761 2.239-5 5-5s5 2.239 5 5v.114c0 2.762-2.239 5-5 5z"/></g></g></g></g></svg>